<svg width="29" height="38" viewBox="0 0 29 38" fill="none" xmlns="http://www.w3.org/2000/svg">
<path d="M12.2143 3.97744C12.7307 3.3552 13.3003 2.85704 14.0517 2.4497C14.805 2.85704 15.3724 3.3552 15.8889 3.97744C16.4401 2.4043 15.1335 0.392799 14.0517 0C13.2453 0.432064 11.6732 2.51805 12.2143 3.97744ZM20.1721 2.60255C18.8123 2.96029 17.6875 3.64668 16.7892 4.66382C15.9054 5.61682 15.307 6.77243 14.9989 8.141C14.7519 9.3068 14.5416 11.2273 14.3844 13.8818C14.3068 15.3289 14.6845 19.4633 14.0517 21.0862C13.5331 19.3126 13.7964 15.3289 13.7189 13.8818C13.5636 11.2273 13.3535 9.3068 13.1044 8.141C12.7961 6.77243 12.1979 5.61682 11.3139 4.66382C10.4176 3.64668 9.29286 2.96029 7.93114 2.60255C6.42246 2.20572 4.79761 2.31317 3.06842 2.91893C3.8747 2.88387 4.5605 2.95206 5.11802 3.09877C6.60835 3.48963 7.82487 4.18006 8.77236 5.17038C9.74411 6.18719 10.387 7.29336 10.6973 8.49648C11.026 9.71624 11.2426 11.6552 11.3527 14.32C11.4752 17.791 11.9386 20.4041 12.7511 22.1509C13.0819 22.8538 13.5146 23.4532 14.0517 23.9515C14.5885 23.4532 15.0233 22.8538 15.352 22.1509C16.1666 20.4041 16.628 17.791 16.7504 14.32C16.8627 11.6552 17.077 9.71624 17.4057 8.49648C17.718 7.29336 18.3612 6.18719 19.3307 5.17038C20.2782 4.18006 21.4968 3.48963 22.9852 3.09877C23.5445 2.95206 24.2284 2.88387 25.0369 2.91893C23.9897 2.55214 22.98 2.36811 22.0112 2.36811C21.3805 2.36811 20.7671 2.44615 20.1721 2.60255ZM23.6262 4.78162C21.7378 5.27782 20.613 6.4189 20.0331 7.77503C19.4534 9.13326 19.0614 11.8289 18.8287 15.8538C18.6797 18.5393 18.3898 20.5094 17.9631 21.7952C17.5527 23.0562 16.8402 24.212 15.8337 25.2579C15.3153 25.7871 14.7192 26.2317 14.0517 26.5933C13.3839 26.2317 12.7899 25.7871 12.2694 25.2579C11.2649 24.212 10.5525 23.0562 10.14 21.7952C9.71555 20.5094 9.42354 18.5393 9.27451 15.8538C9.04171 11.8289 8.64982 9.13326 8.07012 7.77503C7.49218 6.4189 6.36741 5.27782 4.47705 4.78162C3.68896 4.57285 0.769578 4.8561 0 5.27782C2.62946 5.91864 4.92399 5.73671 5.89382 9.32538C6.23258 10.5741 6.74717 12.7717 6.97982 16.0337C7.19826 19.0768 7.45963 21.2352 7.76376 22.4981C8.10475 23.8646 8.7947 25.1071 9.82373 26.2214C10.8893 27.3542 12.2019 28.1232 13.7781 28.5368C13.87 28.5615 13.9617 28.5821 14.0517 28.6048C14.1435 28.5821 14.2333 28.5615 14.3252 28.5368C15.9033 28.1232 17.2159 27.3542 18.2816 26.2214C19.3105 25.1071 19.9983 23.8646 20.3393 22.4981C20.6457 21.2352 20.9069 19.0768 21.1255 16.0337C21.3559 12.7717 21.8724 10.5741 22.2094 9.32538C23.181 5.73671 25.4738 5.91864 28.1032 5.27782C27.5116 4.95369 25.6514 4.71133 24.4634 4.71133C24.1057 4.71133 23.8091 4.7333 23.6262 4.78162ZM17.4491 32.3863C21.4515 26.0256 28.7835 21.3094 29 12.419C27.2445 17.7753 19.0743 25.5234 17.4491 32.3863ZM13.3493 29.802C13.5259 34.953 14.6258 33.4755 15.8995 37.9987C15.9129 38.0464 16.3936 36.747 15.7506 35.0594C14.8358 32.6585 14.8058 31.7212 14.7599 29.802H13.3493Z" fill="url(#paint0_linear)"/>
<defs>
<linearGradient id="paint0_linear" x1="-3.82954e-05" y1="19" x2="29" y2="19" gradientUnits="userSpaceOnUse">
<stop stop-color="#CE9916"/>
<stop offset="0.145251" stop-color="#CE9916"/>
<stop offset="0.377095" stop-color="#F9E95F"/>
<stop offset="0.594972" stop-color="#DAAF2A"/>
<stop offset="0.790503" stop-color="#C08201"/>
<stop offset="1" stop-color="#EBCC45"/>
</linearGradient>
</defs>
</svg>
