<svg width="30" height="30" viewBox="0 0 30 30" fill="none" xmlns="http://www.w3.org/2000/svg">
<path d="M10.3124 15.8053L20.8496 25.078C20.9715 25.1853 21.1192 25.259 21.2782 25.2921C21.4372 25.3251 21.6021 25.3163 21.7566 25.2664C21.9112 25.2166 22.0502 25.1275 22.1599 25.0077C22.2697 24.888 22.3465 24.7419 22.3827 24.5836L26.7906 5.34931C26.8287 5.18301 26.8207 5.00946 26.7675 4.84737C26.7142 4.68527 26.6178 4.54078 26.4885 4.42946C26.3592 4.31814 26.202 4.24421 26.0338 4.21563C25.8656 4.18706 25.6928 4.20493 25.534 4.26731L3.90622 12.7639C3.71773 12.838 3.55829 12.9711 3.45175 13.1433C3.34521 13.3155 3.2973 13.5176 3.31519 13.7193C3.33308 13.9211 3.41582 14.1116 3.55101 14.2624C3.6862 14.4131 3.86658 14.5161 4.06516 14.5558L10.3124 15.8053Z" stroke="white" stroke-width="2" stroke-linecap="round" stroke-linejoin="round"/>
<path d="M10.3125 15.8053L26.2632 4.2854" stroke="white" stroke-width="2" stroke-linecap="round" stroke-linejoin="round"/>
<path d="M15.575 20.4365L11.9129 24.0986C11.7818 24.2297 11.6148 24.319 11.4329 24.3552C11.251 24.3913 11.0625 24.3728 10.8912 24.3018C10.7199 24.2309 10.5735 24.1107 10.4705 23.9565C10.3675 23.8024 10.3125 23.6211 10.3125 23.4357V15.8054" stroke="white" stroke-width="2" stroke-linecap="round" stroke-linejoin="round"/>
</svg>
