<svg width="40" height="40" viewBox="0 0 40 40" fill="none" xmlns="http://www.w3.org/2000/svg">
<path d="M13.2341 21.3904L27.1326 33.69C27.2934 33.8323 27.4882 33.9302 27.698 33.974C27.9077 34.0178 28.1251 34.0061 28.329 33.94C28.5329 33.8739 28.7162 33.7556 28.8609 33.5969C29.0057 33.4381 29.107 33.2442 29.1548 33.0343L34.9688 7.5213C35.019 7.30072 35.0085 7.07052 34.9383 6.85551C34.868 6.64051 34.7408 6.44885 34.5703 6.30119C34.3998 6.15353 34.1924 6.05546 33.9705 6.01756C33.7487 5.97966 33.5207 6.00336 33.3113 6.08611L4.78441 17.3563C4.53579 17.4545 4.32548 17.6311 4.18495 17.8595C4.04443 18.0879 3.98124 18.356 4.00484 18.6236C4.02844 18.8911 4.13756 19.1438 4.31588 19.3438C4.4942 19.5438 4.73212 19.6804 4.99405 19.7331L13.2341 21.3904Z" stroke="white" stroke-width="2" stroke-linecap="round" stroke-linejoin="round"/>
<path d="M14 21L35 6" stroke="white" stroke-width="2" stroke-linecap="round" stroke-linejoin="round"/>
<path d="M21 26.9457L16.1288 31.6475C15.9544 31.8158 15.7322 31.9304 15.4903 31.9769C15.2484 32.0233 14.9977 31.9995 14.7698 31.9084C14.5419 31.8173 14.3472 31.663 14.2102 31.4651C14.0731 31.2671 14 31.0344 14 30.7964V21" stroke="white" stroke-width="2" stroke-linecap="round" stroke-linejoin="round"/>
</svg>
