<svg width="40" height="40" viewBox="0 0 40 40" fill="none" xmlns="http://www.w3.org/2000/svg">
<path d="M20 26C23.3137 26 26 23.3137 26 20C26 16.6863 23.3137 14 20 14C16.6863 14 14 16.6863 14 20C14 23.3137 16.6863 26 20 26Z" stroke="white" stroke-width="2" stroke-miterlimit="10"/>
<path d="M27.4348 6H13.5652C9.38706 6 6 9.38706 6 13.5652V27.4348C6 31.6129 9.38706 35 13.5652 35H27.4348C31.6129 35 35 31.6129 35 27.4348V13.5652C35 9.38706 31.6129 6 27.4348 6Z" stroke="white" stroke-width="2" stroke-linecap="round" stroke-linejoin="round"/>
<path d="M28 14C29.1046 14 30 13.1046 30 12C30 10.8954 29.1046 10 28 10C26.8954 10 26 10.8954 26 12C26 13.1046 26.8954 14 28 14Z" fill="white"/>
</svg>
