<svg width="26" height="22" viewBox="0 0 26 22" fill="none" xmlns="http://www.w3.org/2000/svg">
<path fill-rule="evenodd" clip-rule="evenodd" d="M21.7219 3.75857C19.9995 2.08048 17.1937 2.08048 15.4713 3.75857L13 6.16631L10.5287 3.75857C8.80628 2.08048 6.00054 2.08048 4.27814 3.75857C2.57395 5.41891 2.57395 8.09701 4.27814 9.75735L13 18.2548L21.7219 9.75735C23.426 8.09701 23.426 5.41891 21.7219 3.75857ZM13.7267 1.96792C16.4199 -0.655973 20.7733 -0.655973 23.4664 1.96792C26.1779 4.60957 26.1779 8.90636 23.4664 11.548L13.8723 20.8953C13.3869 21.3682 12.6131 21.3682 12.1277 20.8953L2.53355 11.548C-0.177851 8.90635 -0.177851 4.60957 2.53355 1.96792C5.22674 -0.655973 9.58009 -0.655972 12.2733 1.96792L13 2.67596L13.7267 1.96792Z" fill="#322323"/>
</svg>
