<svg width="22" height="26" viewBox="0 0 22 26" fill="none" xmlns="http://www.w3.org/2000/svg">
<path fill-rule="evenodd" clip-rule="evenodd" d="M11 11.8333C13.5773 11.8333 15.6667 9.74399 15.6667 7.16666C15.6667 4.58933 13.5773 2.49999 11 2.49999C8.42267 2.49999 6.33333 4.58933 6.33333 7.16666C6.33333 9.74399 8.42267 11.8333 11 11.8333ZM6.68991 15.4474C7.11532 15.3724 7.55309 15.3333 8 15.3333H14C14.4469 15.3333 14.8847 15.3724 15.3101 15.4474C18.8276 16.067 21.5 19.1381 21.5 22.8333C21.5 24.4902 20.1569 25.8333 18.5 25.8333H3.5C1.84315 25.8333 0.5 24.4902 0.5 22.8333C0.5 19.1381 3.17238 16.067 6.68991 15.4474ZM7.18037 13.0337C5.26559 11.7845 4 9.62339 4 7.16666C4 3.30066 7.13401 0.166656 11 0.166656C14.866 0.166656 18 3.30066 18 7.16666C18 9.62339 16.7344 11.7845 14.8196 13.0337C14.558 13.2043 14.2843 13.358 14 13.493C13.0907 13.925 12.0736 14.1667 11 14.1667C9.9264 14.1667 8.90926 13.925 8 13.493C7.71572 13.358 7.44199 13.2043 7.18037 13.0337ZM2.83333 22.8333C2.83333 23.2015 3.13181 23.5 3.5 23.5H18.5C18.8682 23.5 19.1667 23.2015 19.1667 22.8333C19.1667 19.9799 16.8535 17.6667 14 17.6667H8C5.14653 17.6667 2.83333 19.9799 2.83333 22.8333Z" fill="white"/>
</svg>
