<svg width="28" height="24" viewBox="0 0 28 24" fill="none" xmlns="http://www.w3.org/2000/svg">
<path d="M24.8985 4.5C26.525 4.5 27.7184 6.02847 27.3239 7.60634L25.4489 15.1063C25.1707 16.2193 24.1707 17 23.0235 17L9.83595 17C8.02363 17 6.47064 15.7039 6.14644 13.9208L4.20629 3.25L1.49951 3.25C0.809156 3.25 0.249512 2.69036 0.249512 2C0.249512 1.30964 0.809156 0.75 1.49951 0.75H4.20629C5.41451 0.75 6.44984 1.61406 6.66597 2.80279L8.60612 13.4736C8.71418 14.068 9.23185 14.5 9.83595 14.5L23.0235 14.5L24.8985 7H11.4995C10.8092 7 10.2495 6.44036 10.2495 5.75C10.2495 5.05964 10.8092 4.5 11.4995 4.5H24.8985Z" fill="#322323"/>
<path d="M14.0001 20.75C14.0001 22.1307 12.8808 23.25 11.5001 23.25C10.1194 23.25 9.00012 22.1307 9.00012 20.75C9.00012 19.3693 10.1194 18.25 11.5001 18.25C12.8808 18.25 14.0001 19.3693 14.0001 20.75Z" fill="#322323"/>
<path d="M20.2501 23.25C21.6308 23.25 22.7501 22.1307 22.7501 20.75C22.7501 19.3693 21.6308 18.25 20.2501 18.25C18.8694 18.25 17.7501 19.3693 17.7501 20.75C17.7501 22.1307 18.8694 23.25 20.2501 23.25Z" fill="#322323"/>
</svg>
