<svg width="16" height="22" viewBox="0 0 16 22" fill="none" xmlns="http://www.w3.org/2000/svg">
<path d="M8 18C8.82843 18 9.5 17.3284 9.5 16.5C9.5 15.6716 8.82843 15 8 15C7.17157 15 6.5 15.6716 6.5 16.5C6.5 17.3284 7.17157 18 8 18Z" fill="#000814"/>
<path fill-rule="evenodd" clip-rule="evenodd" d="M3 22C1.34315 22 0 20.6569 0 19V3C0 1.34315 1.34315 0 3 0H13C14.6569 0 16 1.34314 16 3V19C16 20.6569 14.6569 22 13 22H3ZM2 19C2 19.5523 2.44772 20 3 20H13C13.5523 20 14 19.5523 14 19L14 3C14 2.44772 13.5523 2 13 2L3 2C2.44772 2 2 2.44772 2 3L2 19Z" fill="#000814"/>
</svg>
