<svg width="563" height="72" viewBox="0 0 563 72" fill="none" xmlns="http://www.w3.org/2000/svg">
<path d="M562.051 15.1766C562.111 15.9782 561.775 16.8581 560.938 17.827C560.099 18.7971 558.793 19.8135 557.013 20.8657C553.454 22.9689 548.105 25.1553 541.13 27.3865C527.188 31.8462 506.853 36.4515 481.609 40.9345C431.129 49.8994 361.084 58.3638 283.442 64.2007C205.8 70.0376 135.277 72.1407 84.0236 70.8239C58.3938 70.1655 37.5988 68.6522 23.1462 66.3271C15.9158 65.1639 10.3004 63.8017 6.46741 62.2542C4.54972 61.48 3.10603 60.6703 2.13194 59.8366C1.15892 59.0037 0.695383 58.184 0.635118 57.3823C0.574854 56.5807 0.910617 55.7008 1.74819 54.7319C2.58667 53.7618 3.89307 52.7454 5.67345 51.6932C9.23204 49.59 14.5806 47.4036 21.5558 45.1725C35.4983 40.7127 55.8334 36.1074 81.0767 31.6244C131.557 22.6595 201.602 14.1951 279.244 8.35824C356.886 2.52134 427.409 0.418192 478.662 1.73496C504.292 2.39342 525.087 3.90674 539.54 6.23179C546.77 7.39498 552.386 8.75718 556.219 10.3046C558.136 11.0789 559.58 11.8886 560.554 12.7223C561.527 13.5552 561.991 14.3749 562.051 15.1766Z" stroke="#EAD165"/>
</svg>
