<svg width="24" height="21" viewBox="0 0 24 21" fill="none" xmlns="http://www.w3.org/2000/svg">
<path fill-rule="evenodd" clip-rule="evenodd" d="M20.1406 4.17466C18.533 2.60843 15.9143 2.60843 14.3067 4.17466L12.0002 6.42188L9.6936 4.17466C8.08602 2.60843 5.46734 2.60843 3.85976 4.17466C2.26919 5.7243 2.26919 8.22387 3.85976 9.77352L12.0002 17.7045L20.1406 9.77352C21.7311 8.22387 21.7311 5.7243 20.1406 4.17466ZM12.6785 2.50338C15.1921 0.0544149 19.2552 0.0544149 21.7688 2.50338C24.2995 4.96892 24.2995 8.97926 21.7688 11.4448L12.8143 20.169C12.3613 20.6103 11.6391 20.6103 11.186 20.169L2.23148 11.4448C-0.299165 8.97926 -0.299165 4.96892 2.23148 2.50338C4.74512 0.0544153 8.80824 0.0544155 11.3219 2.50338L12.0002 3.16422L12.6785 2.50338Z" fill="white"/>
</svg>
