<svg width="16" height="21" viewBox="0 0 16 21" fill="none" xmlns="http://www.w3.org/2000/svg">
<path fill-rule="evenodd" clip-rule="evenodd" d="M8.7206 20.6933C8.53208 20.8893 8.2719 21 8 21C7.7281 21 7.46762 20.889 7.27909 20.693L7.19327 20.6026C7.19327 20.6026 7.06142 20.4619 6.96283 20.3545C6.76569 20.14 6.48574 19.8297 6.15053 19.4429C5.48108 18.6704 4.58646 17.587 3.68959 16.3463C2.79498 15.1088 1.88405 13.6956 1.19321 12.2647C0.50993 10.8495 0 9.33227 0 7.90909C0 3.52874 3.59409 0 8 0C12.4059 0 16 3.52874 16 7.90909C16 9.33227 15.4901 10.8495 14.8068 12.2647C14.116 13.6956 13.205 15.1088 12.3104 16.3463C11.4135 17.587 10.5189 18.6704 9.84947 19.4429C9.51426 19.8297 9.23431 20.14 9.03717 20.3545C9.03717 20.3545 8.77449 20.6361 8.7206 20.6933ZM2 7.90909C2 4.65787 4.67393 2 8 2C11.3261 2 14 4.65787 14 7.90909C14 8.8938 13.6349 10.0919 13.0057 11.3952C12.384 12.6828 11.545 13.9914 10.6896 15.1746C9.83646 16.3547 8.98108 17.3911 8.33803 18.1331C8.21721 18.2725 8.10405 18.4014 8 18.5186C7.89595 18.4014 7.7828 18.2725 7.66197 18.1331C7.01892 17.3911 6.16354 16.3547 5.31041 15.1746C4.45502 13.9914 3.61595 12.6828 2.99429 11.3952C2.36507 10.0919 2 8.8938 2 7.90909Z" fill="#000814"/>
<path fill-rule="evenodd" clip-rule="evenodd" d="M5 8C5 6.34315 6.34315 5 8 5C9.65685 5 11 6.34315 11 8C11 9.65685 9.65685 11 8 11C6.34315 11 5 9.65685 5 8ZM7 8C7 7.44772 7.44772 7 8 7C8.55228 7 9 7.44772 9 8C9 8.55228 8.55228 9 8 9C7.44772 9 7 8.55228 7 8Z" fill="#000814"/>
</svg>
