<svg width="26" height="22" viewBox="0 0 26 22" fill="none" xmlns="http://www.w3.org/2000/svg">
<path d="M23.1718 4C24.6898 4 25.8036 5.42658 25.4354 6.89925L23.6854 13.8993C23.4258 14.938 22.4925 15.6667 21.4218 15.6667L9.11336 15.6667C7.42186 15.6667 5.9724 14.457 5.66982 12.7928L3.85901 2.83333L1.33268 2.83333C0.688351 2.83333 0.166016 2.311 0.166016 1.66667C0.166016 1.02233 0.688351 0.5 1.33268 0.5H3.85901C4.98668 0.5 5.95298 1.30646 6.15471 2.41593L7.96551 12.3754C8.06637 12.9301 8.54953 13.3333 9.11336 13.3333L21.4218 13.3333L23.1718 6.33333H10.666C10.0217 6.33333 9.49935 5.811 9.49935 5.16667C9.49935 4.52233 10.0217 4 10.666 4H23.1718Z" fill="white"/>
<path d="M12.9999 19.1667C12.9999 20.4553 11.9552 21.5 10.6666 21.5C9.37791 21.5 8.33325 20.4553 8.33325 19.1667C8.33325 17.878 9.37791 16.8333 10.6666 16.8333C11.9552 16.8333 12.9999 17.878 12.9999 19.1667Z" fill="white"/>
<path d="M18.8332 21.5C20.1219 21.5 21.1666 20.4553 21.1666 19.1667C21.1666 17.878 20.1219 16.8333 18.8332 16.8333C17.5446 16.8333 16.4999 17.878 16.4999 19.1667C16.4999 20.4553 17.5446 21.5 18.8332 21.5Z" fill="white"/>
</svg>
