<svg width="22" height="16" viewBox="0 0 22 16" fill="none" xmlns="http://www.w3.org/2000/svg">
<path fill-rule="evenodd" clip-rule="evenodd" d="M3 0C1.34315 0 0 1.34315 0 3V13C0 14.6569 1.34315 16 3 16H19C20.6569 16 22 14.6569 22 13V3C22 1.34315 20.6569 0 19 0H3ZM2 3.26687V13C2 13.5523 2.44772 14 3 14H19C19.5523 14 20 13.5523 20 13V3.26694L12.8419 8.83438C11.7585 9.67697 10.2416 9.67697 9.15823 8.83438L2 3.26687ZM18.3713 2H3.62881L10.3861 7.25568C10.7472 7.53654 11.2529 7.53654 11.614 7.25567L18.3713 2Z" fill="#000814"/>
</svg>
