<svg width="60" height="60" viewBox="0 0 60 60" fill="none" xmlns="http://www.w3.org/2000/svg">
<path d="M10.2417 23.8238C6.37043 34.7221 11.8534 46.7757 22.4881 50.7445C22.878 50.8885 23.268 51.0212 23.6609 51.1409C23.7432 51.1668 23.9467 51.2266 23.9658 51.2331C24.9571 51.5179 25.9803 51.7282 27.0333 51.8592C27.2557 51.8867 27.4769 51.9094 27.6979 51.9288V51.9337C28.0626 51.9676 28.4289 51.9871 28.7952 52L28.1526 50.9419C28.1289 50.9403 28.1037 50.9386 28.0798 50.937V50.9338C27.7706 50.9095 27.4627 50.8804 27.1533 50.8416C26.0924 50.7089 25.0614 50.4937 24.0684 50.196V50.1944C23.6548 50.0714 23.2411 49.9355 22.8307 49.7818C12.714 46.0072 7.49782 34.5409 11.181 24.1732C14.8641 13.8055 26.0529 8.46151 36.1695 12.2361C46.2877 16.0108 51.5008 27.4754 47.8176 37.8447C45.2395 45.106 38.9765 49.8999 31.9811 50.8238C32.0695 51.1651 32.1658 51.492 32.2732 51.8173C39.5605 50.7898 46.0651 45.771 48.7568 38.1942C52.631 27.2958 47.148 15.2422 36.5121 11.2735C34.1972 10.4097 31.8295 10 29.501 10C21.131 10.0003 13.2727 15.2948 10.2417 23.8238Z" fill="url(#paint0_linear)"/>
<path d="M28.2143 20.9774C28.7307 20.3552 29.3003 19.857 30.0517 19.4497C30.805 19.857 31.3724 20.3552 31.8889 20.9774C32.4401 19.4043 31.1335 17.3928 30.0517 17C29.2453 17.4321 27.6732 19.5181 28.2143 20.9774ZM36.1721 19.6026C34.8123 19.9603 33.6875 20.6467 32.7892 21.6638C31.9054 22.6168 31.307 23.7724 30.9989 25.141C30.7519 26.3068 30.5416 28.2273 30.3844 30.8818C30.3068 32.3289 30.6845 36.4633 30.0517 38.0862C29.5331 36.3126 29.7964 32.3289 29.7189 30.8818C29.5636 28.2273 29.3535 26.3068 29.1044 25.141C28.7961 23.7724 28.1979 22.6168 27.3139 21.6638C26.4176 20.6467 25.2929 19.9603 23.9311 19.6026C22.4225 19.2057 20.7976 19.3132 19.0684 19.9189C19.8747 19.8839 20.5605 19.9521 21.118 20.0988C22.6083 20.4896 23.8249 21.1801 24.7724 22.1704C25.7441 23.1872 26.387 24.2934 26.6973 25.4965C27.026 26.7162 27.2426 28.6552 27.3527 31.32C27.4752 34.791 27.9386 37.4041 28.7511 39.1509C29.0819 39.8538 29.5146 40.4532 30.0517 40.9515C30.5885 40.4532 31.0233 39.8538 31.352 39.1509C32.1666 37.4041 32.628 34.791 32.7504 31.32C32.8627 28.6552 33.077 26.7162 33.4057 25.4965C33.718 24.2934 34.3612 23.1872 35.3307 22.1704C36.2782 21.1801 37.4968 20.4896 38.9852 20.0988C39.5445 19.9521 40.2284 19.8839 41.0369 19.9189C39.9897 19.5521 38.98 19.3681 38.0112 19.3681C37.3805 19.3681 36.7671 19.4461 36.1721 19.6026ZM39.6262 21.7816C37.7378 22.2778 36.613 23.4189 36.0331 24.775C35.4534 26.1333 35.0614 28.8289 34.8287 32.8538C34.6797 35.5393 34.3898 37.5094 33.9631 38.7952C33.5527 40.0562 32.8402 41.212 31.8337 42.2579C31.3153 42.7871 30.7192 43.2317 30.0517 43.5933C29.3839 43.2317 28.7899 42.7871 28.2694 42.2579C27.2649 41.212 26.5525 40.0562 26.14 38.7952C25.7155 37.5094 25.4235 35.5393 25.2745 32.8538C25.0417 28.8289 24.6498 26.1333 24.0701 24.775C23.4922 23.4189 22.3674 22.2778 20.4771 21.7816C19.689 21.5729 16.7696 21.8561 16 22.2778C18.6295 22.9186 20.924 22.7367 21.8938 26.3254C22.2326 27.5741 22.7472 29.7717 22.9798 33.0337C23.1983 36.0768 23.4596 38.2352 23.7638 39.4981C24.1047 40.8646 24.7947 42.1071 25.8237 43.2214C26.8893 44.3542 28.2019 45.1232 29.7781 45.5368C29.87 45.5615 29.9617 45.5821 30.0517 45.6048C30.1435 45.5821 30.2333 45.5615 30.3252 45.5368C31.9033 45.1232 33.2159 44.3542 34.2816 43.2214C35.3105 42.1071 35.9983 40.8646 36.3393 39.4981C36.6457 38.2352 36.9069 36.0768 37.1255 33.0337C37.3559 29.7717 37.8724 27.5741 38.2094 26.3254C39.181 22.7367 41.4738 22.9186 44.1032 22.2778C43.5116 21.9537 41.6514 21.7113 40.4634 21.7113C40.1057 21.7113 39.8091 21.7333 39.6262 21.7816ZM33.4491 49.3863C37.4515 43.0256 44.7835 38.3094 45 29.419C43.2445 34.7753 35.0743 42.5234 33.4491 49.3863ZM29.3493 46.802C29.5259 51.953 30.6258 50.4755 31.8995 54.9987C31.9129 55.0464 32.3936 53.747 31.7506 52.0594C30.8358 49.6585 30.8058 48.7212 30.7599 46.802H29.3493Z" fill="url(#paint1_linear)"/>
<path d="M27.4023 0.345945L28.6077 7.0832C28.7212 7.06205 29.1799 7.00362 29.9855 6.90773L29.9643 6.78988C29.3769 6.77051 28.9978 6.28364 28.8265 5.32685L28.3086 2.43209L28.2193 1.82125C28.0832 0.936773 28.2648 0.370161 28.7705 0.11801L28.7495 0C28.3023 0.146418 27.8539 0.261841 27.4023 0.345945ZM32.1407 0.293478C32.3587 0.385977 32.5281 0.564356 32.6496 0.824095C32.7714 1.08367 32.7768 1.52276 32.6662 2.14087L32.1869 4.81947C32.0587 5.5359 31.9516 5.99904 31.8666 6.21342C31.7868 6.41294 31.6722 6.58374 31.5234 6.72289C31.3776 6.85833 31.1868 6.9355 30.9492 6.95229L30.9286 7.06803C31.4108 7.10596 31.7257 7.13744 31.8712 7.16472L32.2864 7.24205L33.4919 0.504793L33.2844 0.465883C32.7875 0.337225 32.4152 0.243116 32.1615 0.177736L32.1407 0.293478ZM25.5407 0.597933L25.5618 0.71594C25.8708 0.73741 26.1244 0.868488 26.318 1.10999C26.5061 1.3573 26.6468 1.74844 26.7421 2.28164L26.9607 3.50286L23.7755 4.09627L23.5842 3.02809C23.4699 2.38803 23.4514 1.9265 23.5313 1.64287C23.611 1.3594 23.8062 1.14018 24.119 0.984884L24.0978 0.866877C23.5544 1.03137 23.0975 1.14808 22.7295 1.21669L23.9349 7.95412C24.3432 7.88696 24.8082 7.82739 25.3338 7.77461L25.3128 7.65676C25.0603 7.64271 24.8285 7.54602 24.6201 7.37055C24.4156 7.19185 24.2598 6.80329 24.1519 6.20019L23.874 4.64707L27.0592 4.05334L27.3009 5.40352C27.4228 6.08524 27.4238 6.56114 27.3037 6.8296C27.1838 7.09805 27.0004 7.28564 26.7555 7.38782L26.7767 7.50582C27.5043 7.3205 27.96 7.20847 28.1433 7.16973L26.9377 0.432306C26.4691 0.5198 26.0032 0.574848 25.5407 0.597933ZM32.7382 7.32615L35.249 7.79413C35.6236 7.86387 36.0472 7.96993 36.5133 8.10892C36.6081 7.87582 36.7411 7.60268 36.914 7.29161C37.0516 7.05334 37.1604 6.84089 37.2405 6.65283L37.1163 6.62974C36.7728 7.00587 36.4515 7.23042 36.153 7.30355C35.8681 7.37458 35.4661 7.36054 34.948 7.264L33.9955 7.08643C33.7943 7.04898 33.6083 7.00071 33.4375 6.94179C33.4522 6.52466 33.5067 6.04731 33.6034 5.50765L33.8538 4.10725L35.4272 4.40057C35.8296 4.47547 36.1125 4.60058 36.2734 4.77719C36.4324 4.95137 36.4977 5.22983 36.4689 5.61291L36.6059 5.63825C36.638 5.3848 36.6574 5.21449 36.6641 5.12764C36.6924 4.83287 36.7215 4.59654 36.7536 4.41752C36.8039 4.13566 36.8805 3.80683 36.9811 3.43053L36.8439 3.40487C36.6832 3.72256 36.5127 3.90982 36.3275 3.96794C36.1445 4.02638 35.7981 4.00926 35.2886 3.91418L33.9337 3.6617L34.1189 2.62614L34.2092 2.19609C34.319 1.65659 34.4235 1.31936 34.524 1.19135C34.6625 1.19474 34.8101 1.21088 34.9684 1.24026L35.9661 1.42623C36.4969 1.52519 36.8496 1.64287 37.0239 1.78154C37.1974 1.9244 37.3265 2.19221 37.4102 2.58949L37.5173 2.60935L37.5462 2.44775C37.5492 2.43015 37.5632 2.31538 37.588 2.10326C37.6245 1.78735 37.6494 1.58636 37.6645 1.50145C37.6758 1.43785 37.6974 1.34261 37.7291 1.2154C36.7655 1.08755 36.1141 0.993273 35.7696 0.929186L33.9436 0.588898L32.7382 7.32615ZM20.9086 1.46126L20.9296 1.57927C21.1876 1.58766 21.4122 1.69259 21.6086 1.88824C21.8076 2.08616 21.9631 2.49715 22.0757 3.12656L22.6037 6.07798C22.6983 6.60666 22.7434 6.98198 22.741 7.20362C22.7372 7.43011 22.6833 7.63432 22.5798 7.82303C22.4663 8.01578 22.3147 8.15896 22.1233 8.25114L22.1445 8.36915L23.4726 8.04032L22.2671 1.30306C21.6278 1.4017 21.1749 1.45448 20.9086 1.46126ZM40.7814 2.2789C41.1857 2.69248 41.1877 3.30139 40.7868 4.10725L39.2812 7.13276C38.827 8.04548 38.3235 8.4447 37.7704 8.32992L37.7183 8.43469C38.2015 8.64051 38.6111 8.82277 38.9469 8.98194L41.9854 2.87538C41.5887 2.65729 41.2048 2.42354 40.8334 2.17381L40.7814 2.2789ZM16.3947 3.57373C15.7536 3.90385 15.316 4.28094 15.0868 4.7047C14.8634 5.13555 14.8603 5.57254 15.0787 6.0147C15.2677 6.39745 15.5225 6.62184 15.8381 6.68835C16.1544 6.74678 16.749 6.71176 17.6214 6.57858C18.203 6.48818 18.638 6.46073 18.9318 6.4935C19.22 6.52433 19.4987 6.62458 19.767 6.79246C20.0274 6.95938 20.2336 7.19894 20.3864 7.5084C20.549 7.83756 20.6113 8.12636 20.5715 8.37577C20.7868 7.91892 20.7744 7.45029 20.5354 6.96648C20.3776 6.64734 20.1558 6.40067 19.8662 6.22407C19.5824 6.05425 19.2862 5.96305 18.9787 5.95223C18.6946 5.94432 18.2208 5.98661 17.5594 6.07831C16.8504 6.1771 16.355 6.20067 16.0746 6.15111C15.8049 6.10849 15.6098 5.96498 15.4873 5.71735C15.3726 5.48537 15.3999 5.21998 15.5682 4.92456C15.7327 4.63092 16.0062 4.38555 16.3909 4.18764C16.8746 3.93855 17.3374 3.83476 17.7805 3.87269C18.236 3.91176 18.5745 4.15293 18.8009 4.6009L18.9193 4.54004C18.8547 4.38926 18.7968 4.26238 18.7479 4.16311C18.6724 4.01056 18.5802 3.83927 18.4717 3.64878C18.3834 3.49026 18.3101 3.35143 18.2531 3.23633L18.1346 3.02131L18.1142 2.97967C17.4064 3.15014 16.8338 3.34772 16.3947 3.57373ZM39.3659 9.1989C39.5019 9.26944 39.6841 9.37389 39.9108 9.51126C40.1552 9.67786 40.3897 9.81943 40.6128 9.93517C41.2181 10.2487 41.7445 10.3047 42.1865 10.1029C42.6244 9.90402 42.9555 9.57745 43.1801 9.12609C43.6255 8.23113 43.486 7.47629 42.7619 6.86189C43.4012 6.86205 43.8702 6.56211 44.1678 5.96417C44.4052 5.48699 44.4615 5.02045 44.3351 4.56393C44.2034 4.11209 43.8971 3.76163 43.416 3.51222L42.4046 3.0925L39.3659 9.1989ZM41.941 6.30447L41.5044 6.07814L42.087 4.9081C42.3421 4.39524 42.5563 4.05284 42.7287 3.87834C42.8661 3.84734 43.0186 3.87414 43.1817 3.95857C43.4765 4.11144 43.6785 4.34326 43.7915 4.65579C43.8984 4.97025 43.8563 5.32459 43.6614 5.71654C43.4721 6.09687 43.2284 6.33659 42.9319 6.437C42.8285 6.47138 42.7212 6.48866 42.6102 6.48866C42.4009 6.48866 42.1781 6.42732 41.941 6.30447ZM40.8432 9.50141C40.5794 9.36468 40.4052 9.20971 40.3255 9.03633C40.2659 8.76384 40.4177 8.26228 40.7804 7.53375L41.2977 6.49398L41.8662 6.78859C42.2406 6.98279 42.505 7.16714 42.6588 7.34391C42.8008 7.5197 42.8812 7.74055 42.9 8.00706C42.9177 8.27036 42.8568 8.53994 42.7168 8.82115C42.5425 9.17161 42.2984 9.43136 41.9872 9.60118C41.8541 9.66882 41.7107 9.70256 41.5566 9.70256C41.3397 9.70256 41.1018 9.63556 40.8432 9.50141ZM44.8519 5.17801C44.8468 5.51152 44.7601 5.84762 44.5928 6.18436C44.3799 6.61199 44.082 6.92096 43.6966 7.11226C43.9737 7.15875 44.2532 7.10677 44.5354 6.96165C44.8224 6.80651 45.033 6.59439 45.1689 6.32109C45.3217 6.01421 45.3598 5.6828 45.285 5.32766C45.2063 4.97558 45.001 4.66241 44.667 4.38717C44.7933 4.56975 44.855 4.83336 44.8519 5.17801ZM14.7234 6.89401C14.8598 7.1694 15.0561 7.37926 15.3134 7.52536C15.5564 7.67161 15.8299 7.747 16.1366 7.75087C16.3974 7.75087 16.8177 7.70875 17.3934 7.62109C18.1103 7.50857 18.6131 7.48081 18.9034 7.53537C19.2014 7.5909 19.4258 7.76912 19.5758 8.07228C19.7169 8.35769 19.7257 8.66166 19.6041 8.9829C19.4815 9.30221 19.2411 9.55533 18.8838 9.7392C18.4213 9.97747 17.9309 10.0307 17.4187 9.89643C16.8966 9.76229 16.4986 9.45493 16.2282 8.97225L16.0981 9.03909C16.1413 9.16613 16.2041 9.31286 16.2865 9.47946C16.3503 9.60844 16.455 9.7957 16.6008 10.0464C16.7523 10.2942 16.8591 10.4805 16.92 10.6035C16.9719 10.7084 17.0121 10.7948 17.0405 10.8623L17.1038 10.887C17.2863 10.7979 17.581 10.6984 17.9845 10.5878C18.4462 10.4619 18.7942 10.3376 19.0294 10.2165C19.6103 9.91757 19.9679 9.53192 20.1027 9.05958C20.2333 8.5945 20.2018 8.16558 20.0087 7.77492C19.8118 7.37635 19.5169 7.13001 19.1226 7.03703C18.7125 6.94227 18.1326 6.96213 17.3838 7.09385C16.808 7.19135 16.383 7.23365 16.1075 7.21864C15.8359 7.20685 15.5709 7.11936 15.3106 6.95728C15.0569 6.79924 14.8557 6.5697 14.7068 6.26831C14.6508 6.15515 14.6067 6.01131 14.5787 5.8368C14.5248 6.23505 14.5725 6.58858 14.7234 6.89401ZM49.1541 6.99845C49.3325 7.43156 49.4238 8.07728 49.4314 8.93254L49.4385 9.5471L46.9297 11.7806C46.4336 12.2205 46.0444 12.4775 45.7601 12.5502C45.479 12.6228 45.1851 12.5452 44.8813 12.3203L44.7926 12.3991C45.176 12.7681 45.4526 13.0524 45.6238 13.2535C45.7737 13.4295 46.0409 13.7838 46.424 14.3151L46.5127 14.2363C46.336 13.9105 46.2865 13.5983 46.3686 13.3021C46.4491 13.007 46.7332 12.6435 47.2209 12.2107L49.4598 10.2254L49.534 17.9677L49.6167 18.0649L50.0141 17.7125L49.9214 7.85935L49.2427 6.91983L49.1541 6.99845ZM43.5865 9.37388C43.2957 9.9581 42.8837 10.3449 42.3473 10.5399C42.6942 10.6079 43.0371 10.5562 43.3747 10.3877C43.7116 10.2159 43.9681 9.95551 44.1426 9.60489C44.4983 8.89008 44.3827 8.21498 43.7959 7.57459C43.9666 8.1488 43.8968 8.75028 43.5865 9.37388ZM50.4856 17.2943L53.4223 14.6899C53.7165 14.4292 53.9664 14.2489 54.1692 14.1483C54.3686 14.051 54.5762 14.0169 54.79 14.0448C55.0149 14.072 55.2097 14.1583 55.3781 14.3089L55.4669 14.2302C54.9699 13.7414 54.6614 13.4266 54.5415 13.2856C54.4102 13.1315 54.1784 12.8252 53.8459 12.367C53.7649 12.2446 53.7228 12.1816 53.72 12.1786L53.6312 12.2572C53.7837 12.5072 53.8625 12.7523 53.869 12.9935C53.874 13.2362 53.8109 13.4571 53.6787 13.6535C53.5382 13.8577 53.3021 14.1083 52.9669 14.4055L50.9696 16.1768L50.8921 8.99937L50.394 8.41434L50.4856 17.2943ZM9.48909 8.66037L9.48957 8.66085C9.49083 8.65924 9.49147 8.65843 9.49131 8.65843C9.49115 8.65843 9.49052 8.65908 9.48909 8.66037ZM9.17401 9.00227C8.93738 9.27719 8.71894 9.5195 8.51632 9.73065L13.1344 14.6999L15.2753 12.6277C15.5625 12.3495 15.8488 12.109 16.1328 11.9046C16.0382 11.7576 15.9298 11.5409 15.8126 11.2566C15.6255 10.8164 15.4732 10.5108 15.3545 10.3378L15.2615 10.428C15.3935 10.9155 15.3982 11.3241 15.2744 11.6521C15.1519 11.9818 14.92 12.3101 14.5776 12.6419L13.6067 13.5817C13.4614 13.7223 13.3535 13.79 13.2858 13.7849C13.2121 13.783 13.0457 13.6686 12.7791 13.4398C12.5245 13.2272 12.2527 12.9671 11.9666 12.6593L10.059 10.6064C9.70706 10.2278 9.49099 9.8953 9.41222 9.60715C9.33804 9.32723 9.3915 9.03957 9.57008 8.74738L9.48957 8.66085C9.47486 8.67813 9.37015 8.79161 9.17401 9.00227ZM7.14604 10.9285L7.22687 11.0153C7.40355 10.9088 7.62943 10.8739 7.90244 10.9094C8.16928 10.9451 8.52581 11.2027 8.9736 11.6847L11.0715 13.942C11.4892 14.3916 11.7537 14.76 11.8603 15.0455C11.9636 15.328 11.9452 15.6244 11.8002 15.9362L11.8794 16.0215C12.1292 15.7095 12.3402 15.4687 12.5155 15.299L12.8029 15.0207L8.18478 10.0516L7.14604 10.9285ZM5.2027 14.9928C5.96748 14.8636 6.84694 15.0581 7.84423 15.5749C8.97139 16.1591 9.71101 16.8063 10.0618 17.5186C9.92534 16.4443 9.30182 15.6178 8.1881 15.0407C7.60792 14.74 7.063 14.5898 6.55352 14.5898C6.07156 14.5898 5.62123 14.7243 5.2027 14.9928ZM5.02159 15.5043C4.25175 15.683 3.66872 16.1681 3.27565 16.958C2.88749 17.7382 2.85364 18.4929 3.17126 19.2227C3.49757 19.9548 4.17314 20.5889 5.20128 21.1217C6.19067 21.6344 7.07724 21.8151 7.86036 21.668C8.64381 21.5211 9.23744 21.0441 9.63651 20.2423C9.88865 19.7354 9.99193 19.2335 9.94638 18.7316C9.91158 18.228 9.70706 17.7459 9.33535 17.2867C8.96158 16.8214 8.4279 16.4078 7.72939 16.0459C6.94801 15.6407 6.24365 15.4377 5.61728 15.4377C5.41007 15.4377 5.21156 15.4598 5.02159 15.5043ZM5.54594 20.6203C3.68738 19.6571 3.08616 18.5161 3.74116 17.1995C4.41024 15.855 5.65034 15.6532 7.46429 16.5935C9.25895 17.5235 9.82711 18.6524 9.16594 19.9811C8.77145 20.7744 8.18399 21.171 7.40418 21.171C6.87382 21.171 6.25441 20.9876 5.54594 20.6203ZM56.5258 17.0474C56.5874 17.375 56.5298 17.6549 56.3498 17.8843C56.1685 18.1166 55.8267 18.3476 55.3231 18.58L52.7258 19.7788C52.0539 20.0893 51.5658 20.2436 51.2572 20.2424C50.9454 20.245 50.6828 20.1102 50.4709 19.8424L50.364 19.8918C50.6688 20.4507 50.8845 20.8727 51.0109 21.1579L57.1253 18.3356C56.9649 17.9464 56.8007 17.5007 56.6329 16.998L56.5258 17.0474ZM51.2083 21.6031C51.4297 22.1029 51.5987 22.549 51.7153 22.9412L51.8222 22.8918C51.7817 22.6545 51.8282 22.4038 51.959 22.1438C52.0915 21.8826 52.4554 21.6149 53.0522 21.3394L55.8237 20.06C56.4899 19.7525 56.9651 19.6282 57.2471 19.6883C57.5215 19.7467 57.7326 19.8833 57.8771 20.0968L57.9844 20.0474C57.7612 19.6946 57.5405 19.2724 57.3226 18.7807L51.2083 21.6031ZM4.68816 22.1186C5.79602 22.6928 6.79727 22.721 7.69096 22.2004C6.82147 22.2603 5.93221 22.0561 5.02428 21.5854C4.02113 21.0656 3.30302 20.4244 2.87088 19.6649C2.94127 20.7101 3.5474 21.5274 4.68816 22.1186ZM0.974677 23.7043C0.951741 23.8938 0.903024 24.1518 0.828523 24.478C0.776325 24.7074 0.748803 24.8269 0.746114 24.8348L0.86253 24.8493C1.00884 24.5276 1.24927 24.3878 1.58207 24.4296C1.79798 24.4569 2.10911 24.6035 2.51341 24.869L5.43253 26.7668L2.25052 28.0066C1.61197 28.2485 1.1648 28.3556 0.905711 28.323C0.670347 28.2934 0.532104 28.1485 0.495249 27.891L0.378674 27.8763C0.373612 28.4261 0.347671 28.8949 0.300218 29.2872L6.52093 26.9037L2.62634 24.3507C2.06087 23.9865 1.68947 23.7027 1.50836 23.4964C1.33089 23.2949 1.20103 23.046 1.11656 22.7467L1.00014 22.7322C1.00141 23.2289 0.992709 23.5547 0.974677 23.7043ZM58.9711 23.1261C58.9238 23.4408 58.817 23.6646 58.653 23.7949C58.4845 23.9256 58.2123 24.0138 57.8366 24.0609L53.6469 24.588C52.9688 24.6734 52.5442 24.4627 52.3756 23.9558L52.2591 23.9705C52.39 24.6186 52.4685 25.0518 52.4952 25.2721L59.1555 24.4341C59.1106 23.9723 59.088 23.5298 59.088 23.1114L58.9711 23.1261ZM0.746114 24.8348L0.745955 24.8346C0.745955 24.8353 0.745956 24.8353 0.746114 24.8348ZM52.5529 25.7504C52.592 26.0744 52.62 26.5229 52.6368 27.0982L52.7535 27.0835C52.801 26.7686 52.9074 26.5427 53.0708 26.4081C53.2296 26.2694 53.484 26.1792 53.8339 26.1353L56.0625 25.8547L52.9995 29.4467L53.0852 30.1565L56.5137 26.0868L56.2655 25.8294L57.4295 25.6829C58.1509 25.5921 58.6237 25.5864 58.8485 25.6678C59.0706 25.7449 59.2389 25.9407 59.349 26.2536L59.4655 26.2389C59.3947 25.9414 59.3105 25.5 59.2132 24.9124L52.5529 25.7504ZM53.1614 30.789L53.1942 31.0602C53.197 31.0819 53.2084 31.394 53.2288 32L53.3456 31.9853C53.3106 31.5869 53.6716 30.9463 54.4305 30.0588L56.9102 27.1377L58.1452 28.3585C58.1625 28.3741 58.1876 28.4001 58.218 28.4343L58.5987 28.8273C59.2314 29.4725 59.659 30.0901 59.8834 30.6771L60 30.6626C59.9559 30.4064 59.9054 30.1352 59.8491 29.8491C59.7986 29.6496 59.7654 29.4838 59.7493 29.3493C59.7327 29.2128 59.7196 28.995 59.7099 28.6986C59.7053 28.368 59.6911 28.1058 59.6675 27.9118L59.5511 27.9265C59.4749 28.2203 59.3554 28.3762 59.1914 28.3969C58.9796 28.4235 58.6446 28.2083 58.1859 27.7515L56.8498 26.4181L53.1614 30.789ZM0.237106 29.8096L0 31.0106L0.116575 31.0251C0.290726 30.5457 0.80891 30.1411 1.67065 29.8133L7.41083 27.5952L7.42332 27.4916L6.99499 27.2073L0.237106 29.8096Z" fill="white"/>
<path d="M55.1081 38.035C54.8273 38.0957 54.5773 38.2227 54.3574 38.4151C54.1382 38.6087 53.9801 38.8504 53.8838 39.1411C53.7872 39.433 53.7694 39.7229 53.8293 40.0101C53.8901 40.2985 54.0156 40.5546 54.2043 40.7794C54.3937 41.0047 54.6311 41.1655 54.9169 41.2635C55.3459 41.4109 55.7778 41.3695 56.2101 41.1391C56.5912 40.9178 56.8538 40.6103 57 40.2172L56.4005 39.9952C56.3442 40.1513 56.2513 40.29 56.1202 40.4111C55.9897 40.5313 55.8363 40.6167 55.6599 40.6672C55.4836 40.7177 55.3043 40.7113 55.1205 40.6482C54.8565 40.5576 54.6633 40.385 54.5405 40.1313C54.417 39.8762 54.4 39.6153 54.4883 39.3486C54.5588 39.1354 54.6803 38.9666 54.8535 38.8425C55.0276 38.7187 55.2204 38.6537 55.4334 38.6484L55.1205 39.5936L55.7249 39.8011L56.2426 38.2375L56.2396 38.2362L56.2557 38.188L55.9647 38.0883C55.7856 38.0297 55.6088 38 55.4341 38C55.3244 38 55.2158 38.0117 55.1081 38.035ZM5.75662 41.1309L3 42.1904L3.22539 42.798L4.42791 42.3356L4.65599 42.9314L5.25047 42.6959L5.02476 42.1065L5.97081 41.7428C6.22948 41.6435 6.48548 41.6529 6.74037 41.7693C6.99589 41.8866 7.17128 42.0774 7.26892 42.3407C7.2697 42.3428 7.27002 42.3438 7.27002 42.3438L7.27081 42.3459L7.86749 42.1166L7.8667 42.1146C7.8667 42.1146 7.86639 42.1135 7.8656 42.1114C7.75961 41.8253 7.59447 41.5902 7.36923 41.4067C7.14368 41.2222 6.89084 41.105 6.60977 41.0532C6.51608 41.036 6.42223 41.0275 6.32806 41.0275C6.13879 41.0275 5.94857 41.062 5.75662 41.1309ZM52.4655 42.8357L53.8741 43.6696C54.115 43.812 54.271 44.0196 54.3418 44.2948C54.4125 44.5698 54.3784 44.828 54.2396 45.0713C54.0995 45.3165 53.8954 45.4753 53.626 45.5478C53.3568 45.6204 53.1024 45.5853 52.8614 45.4427L51.4527 44.6089L51.132 45.1702L52.5409 46.004C52.8024 46.159 53.0776 46.2346 53.3685 46.2325C53.6581 46.2306 53.9297 46.1582 54.182 46.014C54.4347 45.8714 54.6377 45.6659 54.7909 45.3977C54.9424 45.1323 55.0167 44.852 55.0137 44.558C55.012 44.2633 54.9399 43.986 54.7987 43.7283C54.6573 43.4688 54.4563 43.2628 54.1948 43.1081L52.786 42.2742L52.4655 42.8357ZM7.24667 44.5056L7.57144 45.0644L10.0962 43.5435L9.77112 42.9846L7.24667 44.5056ZM6.64936 45.1294C6.51182 45.3887 6.44116 45.6655 6.43958 45.9613C6.43784 46.2561 6.51434 46.5356 6.66844 46.8007L7.21734 46.4701C7.07554 46.2259 7.03989 45.9666 7.10914 45.6919C7.17917 45.4167 7.33358 45.2078 7.57144 45.0644L7.24667 44.5056C6.98627 44.6623 6.78784 44.8695 6.64936 45.1294ZM9.95377 47.2309C9.66717 47.2845 9.41134 47.4125 9.18437 47.6148C8.95676 47.8178 8.79841 48.0591 8.70819 48.3414C8.61907 48.6227 8.59983 48.908 8.65345 49.1975C8.7055 49.4868 8.83137 49.7474 9.03074 49.979C9.23074 50.2115 9.46859 50.3738 9.74351 50.4645C10.0183 50.5568 10.2987 50.575 10.5837 50.521C10.8695 50.4666 11.1247 50.3377 11.3525 50.1347C11.5792 49.9326 11.7385 49.692 11.8292 49.4107C11.9191 49.1302 11.9386 48.8447 11.8856 48.5546C11.8326 48.2661 11.7061 48.0047 11.506 47.772C11.3068 47.5403 11.0695 47.3789 10.7956 47.2876C10.6221 47.2299 10.4467 47.2013 10.2692 47.2013C10.1648 47.2013 10.0596 47.2113 9.95377 47.2309ZM10.2014 49.8985C9.92427 49.8805 9.69335 49.7638 9.51055 49.5512C9.32821 49.3396 9.24572 49.0922 9.26339 48.8081C9.28184 48.5252 9.39493 48.2903 9.60471 48.1032C9.81433 47.9165 10.058 47.8332 10.3353 47.8526C10.614 47.872 10.8441 47.9881 11.0262 48.1999C11.2091 48.4123 11.2926 48.6607 11.2733 48.9428C11.2558 49.2253 11.1418 49.4594 10.9323 49.6463C10.7418 49.8162 10.5236 49.9011 10.2768 49.9011C10.252 49.9011 10.2268 49.9003 10.2014 49.8985ZM49.7792 47.3632C49.504 47.4602 49.2697 47.626 49.0754 47.8606C48.8803 48.0962 48.7595 48.3592 48.7136 48.6503C48.666 48.9412 48.6907 49.2262 48.785 49.5059C48.8787 49.7848 49.0417 50.0231 49.2721 50.2209C49.5052 50.421 49.7642 50.5448 50.0502 50.5915C50.3369 50.6389 50.6161 50.6146 50.8891 50.5172C51.1623 50.421 51.3964 50.2553 51.5913 50.0198C51.6363 49.9655 51.6786 49.9077 51.7167 49.8476L52.4547 49.8693L52.47 49.2201L51.9598 49.207C52.0022 48.92 51.9759 48.6408 51.8801 48.3661C51.7855 48.092 51.6227 47.8568 51.3929 47.6598C51.1626 47.4619 50.9049 47.338 50.6197 47.2903C50.5246 47.2742 50.43 47.2662 50.3361 47.2662C50.1478 47.2662 49.962 47.2985 49.7792 47.3632ZM49.6833 49.7243C49.4719 49.543 49.3552 49.311 49.3306 49.0276C49.307 48.7433 49.3849 48.4944 49.5631 48.2792C49.742 48.0633 49.9705 47.942 50.2483 47.9194C50.5267 47.8961 50.7705 47.9746 50.982 48.1562C51.1352 48.2877 51.2393 48.4452 51.2943 48.6301C51.3506 48.8147 51.3555 49.0014 51.3111 49.1893L51.1002 49.1824L51.089 49.619C50.898 49.829 50.6688 49.9441 50.4002 49.9642C50.3726 49.9663 50.3451 49.9674 50.3182 49.9674C50.0833 49.9674 49.8715 49.8857 49.6833 49.7243ZM45.4087 49.7338L45.8 50.2039L46.2865 49.784L45.8953 49.3141L45.4087 49.7338ZM12.6839 51.5615C12.5038 51.8089 12.3989 52.0788 12.3695 52.3741C12.3408 52.6683 12.3814 52.9514 12.4938 53.2227C12.605 53.4942 12.782 53.7217 13.025 53.9053C13.2437 54.0702 13.481 54.1724 13.7375 54.2129C13.9941 54.2534 14.2457 54.2352 14.4908 54.1594C14.4913 54.4208 14.5473 54.6712 14.6597 54.9094C14.7722 55.1476 14.9369 55.3492 15.1555 55.5143C15.3978 55.6972 15.6629 55.8038 15.9514 55.8338C16.2383 55.8643 16.5168 55.8223 16.7853 55.7087C17.0542 55.5946 17.2777 55.4144 17.458 55.167L18.429 53.8348L17.9167 53.448L16.9455 54.7802C16.7796 55.0079 16.5596 55.1424 16.284 55.184C16.0085 55.2258 15.7594 55.1618 15.5356 54.9928C15.3189 54.8292 15.188 54.6143 15.1438 54.3476C15.1003 54.0817 15.1523 53.83 15.3001 53.5938C15.3085 53.5822 15.3175 53.5697 15.3268 53.5573L16.2976 52.2251L15.7853 51.8382L14.8145 53.1705C14.8053 53.1827 14.7963 53.1954 14.7878 53.207C14.6094 53.4199 14.3888 53.5443 14.1262 53.5792C13.8635 53.614 13.6238 53.549 13.4052 53.3838C13.1831 53.2161 13.0509 52.992 13.0091 52.7108C12.9683 52.4303 13.0303 52.1761 13.1962 51.9485L14.1672 50.6161L13.6549 50.2291L12.6839 51.5615ZM46.2432 50.7364L48.365 53.2853L48.8516 52.8654L46.73 50.3166L46.2432 50.7364ZM42.7754 51.7108L44.3398 54.2372L44.8794 53.8908L44.3522 53.0397L44.8726 52.7058L44.5324 52.1566L44.0122 52.4904L43.315 51.3646L42.7754 51.7108ZM41.3254 54.0562L41.9977 55.5674C42.1125 55.8258 42.1212 56.087 42.022 56.3529C41.9228 56.619 41.748 56.8089 41.4961 56.925C41.2422 57.0421 40.9857 57.0507 40.7248 56.9507C40.4641 56.8507 40.277 56.6718 40.162 56.4135L39.49 54.9022L38.9089 55.17L39.581 56.6811C39.7057 56.9619 39.8868 57.1861 40.125 57.3561C40.3616 57.5257 40.6242 57.6272 40.9119 57.6588C41.1991 57.6919 41.4814 57.6445 41.7592 57.5164C42.0338 57.3899 42.2541 57.2057 42.4191 56.9642C42.5857 56.723 42.6849 56.4549 42.7171 56.1614C42.7496 55.8667 42.7034 55.5801 42.5786 55.2996L41.9065 53.7884L41.3254 54.0562ZM44.8794 53.8908L44.3398 54.2372C44.501 54.4978 44.7106 54.6948 44.9693 54.83C45.2265 54.9648 45.5003 55.0289 45.7896 55.0201C46.0784 55.0128 46.3518 54.9265 46.6096 54.7611L46.2694 54.2118C46.0338 54.363 45.7808 54.4075 45.509 54.3447C45.2373 54.2821 45.028 54.1309 44.8794 53.8908ZM20.5214 54.8433C20.2345 54.8865 19.9757 54.9978 19.7432 55.175C19.5102 55.3531 19.3373 55.584 19.2228 55.868C19.0512 56.2946 19.0641 56.736 19.2624 57.1898C19.455 57.5912 19.7395 57.8777 20.1154 58.0511L20.3716 57.4562C20.222 57.3892 20.0921 57.2856 19.9817 57.145C19.8722 57.0048 19.7984 56.8433 19.76 56.6609C19.7217 56.4785 19.7395 56.2967 19.813 56.1143C19.9189 55.8516 20.1004 55.6665 20.357 55.5581C20.6151 55.4489 20.8719 55.4483 21.1277 55.5551C21.332 55.6403 21.4899 55.7744 21.6006 55.9584C21.7108 56.1432 21.7621 56.343 21.7537 56.5599L20.8471 56.1816L20.6052 56.7824L22.105 57.4082L22.1061 57.4051L22.1525 57.4244L22.2689 57.1352C22.3809 56.8457 22.4173 56.5565 22.3755 56.2686C22.3343 55.9794 22.2258 55.7172 22.0512 55.4817C21.8753 55.2466 21.6485 55.0707 21.3695 54.9542C21.1646 54.8687 20.9583 54.8261 20.7506 54.8261C20.6742 54.8261 20.5979 54.8319 20.5214 54.8433ZM29.158 55.4056L29.2729 58.403C29.2914 58.7116 29.378 58.9888 29.5345 59.232C29.6909 59.4764 29.8955 59.6681 30.1502 59.8076C30.4042 59.9472 30.6811 60.0106 30.9811 59.9986C31.2846 59.9865 31.558 59.9003 31.8002 59.7399C32.0438 59.5804 32.2338 59.3699 32.372 59.1103C32.5102 58.8499 32.5723 58.567 32.5606 58.2592C32.5488 57.9525 32.4651 57.6752 32.3075 57.4263C32.1498 57.1785 31.9441 56.9839 31.6892 56.8431C31.4354 56.7036 31.1564 56.6392 30.8529 56.6513C30.6636 56.6588 30.4841 56.6959 30.3158 56.7648C30.1474 56.8335 29.9952 56.9261 29.8592 57.0446L29.7953 55.3804L29.158 55.4056ZM30.2335 59.0779C30.0289 58.8854 29.9206 58.6479 29.9099 58.3645C29.899 58.0809 29.9886 57.8357 30.1778 57.6286C30.3682 57.4202 30.6015 57.3112 30.8777 57.3001C31.1551 57.2892 31.3971 57.3793 31.6005 57.5719C31.8051 57.7635 31.9122 58.001 31.9233 58.2844C31.934 58.5679 31.8453 58.8131 31.6562 59.0214C31.4681 59.2295 31.2337 59.3386 30.9564 59.3497C30.9414 59.3504 30.9264 59.3505 30.9117 59.3505C30.654 59.3505 30.4278 59.26 30.2335 59.0779ZM35.7512 56.0374C35.4564 56.1068 35.2046 56.2433 34.9958 56.4457C34.7863 56.6496 34.6379 56.8926 34.5488 57.1739C34.4597 57.4566 34.4496 57.7465 34.5173 58.0458C34.5854 58.3459 34.7195 58.6021 34.921 58.8163C35.1225 59.0294 35.3602 59.1816 35.6362 59.2704C35.9113 59.3603 36.1963 59.3707 36.4912 59.3014C36.787 59.2319 37.0398 59.0952 37.2483 58.8916C37.4583 58.6887 37.6064 58.4457 37.6947 58.1646C37.7825 57.8823 37.7919 57.5925 37.7237 57.2924C37.6559 56.9933 37.5229 56.7368 37.3223 56.5223C37.122 56.3089 36.8841 56.1567 36.6079 56.067C36.4534 56.0169 36.2952 55.9918 36.1337 55.9918C36.0081 55.9918 35.8807 56.0071 35.7512 56.0374ZM35.5878 58.5392C35.3515 58.3887 35.2015 58.176 35.1389 57.8996C35.0761 57.6233 35.1193 57.3653 35.2673 57.1259C35.416 56.8849 35.6253 56.7335 35.8945 56.6702C36.165 56.6066 36.4193 56.6493 36.6546 56.7998C36.8908 56.9489 37.0393 57.162 37.1021 57.4383C37.1647 57.7148 37.1228 57.9727 36.9751 58.2131C36.8284 58.4534 36.6182 58.6052 36.3477 58.6688C36.2674 58.6875 36.1887 58.697 36.1114 58.697C35.9289 58.697 35.7545 58.6445 35.5878 58.5392ZM25.3588 56.395C25.082 56.4846 24.8435 56.6357 24.6413 56.8468C24.4389 57.0588 24.3036 57.3144 24.2345 57.6132L23.8603 59.2277L24.4812 59.3767L24.8553 57.762C24.9189 57.4883 25.0697 57.2763 25.3066 57.1272C25.5449 56.9772 25.7985 56.9345 26.0676 56.999L26.214 56.3671C26.0845 56.3359 25.9566 56.3205 25.8305 56.3205C25.6703 56.3205 25.513 56.3455 25.3588 56.395Z" fill="white"/>
<defs>
<linearGradient id="paint0_linear" x1="9.00005" y1="31" x2="50.0001" y2="31" gradientUnits="userSpaceOnUse">
<stop stop-color="#CE9916"/>
<stop offset="0.145251" stop-color="#CE9916"/>
<stop offset="0.377095" stop-color="#F9E95F"/>
<stop offset="0.594972" stop-color="#DAAF2A"/>
<stop offset="0.790503" stop-color="#C08201"/>
<stop offset="1" stop-color="#EBCC45"/>
</linearGradient>
<linearGradient id="paint1_linear" x1="16" y1="36" x2="45" y2="36" gradientUnits="userSpaceOnUse">
<stop stop-color="#CE9916"/>
<stop offset="0.145251" stop-color="#CE9916"/>
<stop offset="0.377095" stop-color="#F9E95F"/>
<stop offset="0.594972" stop-color="#DAAF2A"/>
<stop offset="0.790503" stop-color="#C08201"/>
<stop offset="1" stop-color="#EBCC45"/>
</linearGradient>
</defs>
</svg>
