<svg width="293" height="50" viewBox="0 0 293 50" fill="none" xmlns="http://www.w3.org/2000/svg">
<path d="M292.326 14.0106C292.422 15.2845 291.662 16.6983 289.864 18.2377C288.079 19.7662 285.363 21.3362 281.784 22.9182C274.632 26.0794 264.149 29.2388 251.092 32.2149C224.984 38.1653 188.673 43.3636 148.349 46.3951C108.025 49.4266 71.344 49.7156 44.6405 47.7353C31.2849 46.7449 20.4471 45.1884 12.903 43.1319C9.12782 42.1029 6.2078 40.9565 4.21438 39.7121C2.20665 38.4588 1.24361 37.1745 1.14784 35.9006C1.05207 34.6267 1.81228 33.2129 3.61006 31.6735C5.39502 30.145 8.11083 28.575 11.6897 26.9931C18.8416 23.8318 29.3248 20.6724 42.3823 17.6963C68.4896 11.7459 104.801 6.54757 145.125 3.5161C185.449 0.484639 222.13 0.195639 248.833 2.17587C262.189 3.16627 273.027 4.72282 280.571 6.77928C284.346 7.80836 287.266 8.95471 289.26 10.1991C291.267 11.4524 292.23 12.7367 292.326 14.0106Z" stroke="#EAD165"/>
</svg>
